<mxfile host="app.diagrams.net" modified="2023-03-14T23:01:13.635Z" agent="5.0 (Windows NT 10.0; Win64; x64) AppleWebKit/537.36 (KHTML, like Gecko) Chrome/111.0.0.0 Safari/537.36" etag="M-GWvluPXmp0qNiQmjK4" version="21.0.6" type="github">
  <diagram name="Page-1" id="12FBqvZVIyKujBhppzVr">
    <mxGraphModel dx="724" dy="376" grid="0" gridSize="10" guides="1" tooltips="1" connect="1" arrows="1" fold="1" page="1" pageScale="1" pageWidth="827" pageHeight="1169" math="0" shadow="0">
      <root>
        <mxCell id="0" />
        <mxCell id="1" parent="0" />
        <mxCell id="VJBKhlAJXeaNPZMT-unQ-5" style="edgeStyle=orthogonalEdgeStyle;rounded=0;orthogonalLoop=1;jettySize=auto;html=1;endArrow=none;endFill=0;dashed=1;" edge="1" parent="1" source="VJBKhlAJXeaNPZMT-unQ-1">
          <mxGeometry relative="1" as="geometry">
            <mxPoint x="343" y="320" as="targetPoint" />
          </mxGeometry>
        </mxCell>
        <mxCell id="VJBKhlAJXeaNPZMT-unQ-1" value="KIP" style="swimlane;childLayout=stackLayout;horizontal=1;startSize=50;horizontalStack=0;rounded=1;fontSize=14;fontStyle=0;strokeWidth=2;resizeParent=0;resizeLast=1;shadow=0;dashed=0;align=center;arcSize=4;whiteSpace=wrap;html=1;" vertex="1" parent="1">
          <mxGeometry x="82" y="255.5" width="160" height="129" as="geometry" />
        </mxCell>
        <mxCell id="VJBKhlAJXeaNPZMT-unQ-2" value="#kip_id&lt;br&gt;*land&lt;br&gt;°naam&lt;br&gt;°leeftijd&lt;br&gt;" style="align=left;strokeColor=none;fillColor=none;spacingLeft=4;fontSize=12;verticalAlign=top;resizable=0;rotatable=0;part=1;html=1;" vertex="1" parent="VJBKhlAJXeaNPZMT-unQ-1">
          <mxGeometry y="50" width="160" height="79" as="geometry" />
        </mxCell>
        <mxCell id="VJBKhlAJXeaNPZMT-unQ-6" style="edgeStyle=orthogonalEdgeStyle;rounded=0;orthogonalLoop=1;jettySize=auto;html=1;endArrow=none;endFill=0;startArrow=ERmany;startFill=0;" edge="1" parent="1" source="VJBKhlAJXeaNPZMT-unQ-3">
          <mxGeometry relative="1" as="geometry">
            <mxPoint x="343.20002441406245" y="320" as="targetPoint" />
          </mxGeometry>
        </mxCell>
        <mxCell id="VJBKhlAJXeaNPZMT-unQ-3" value="EI" style="swimlane;childLayout=stackLayout;horizontal=1;startSize=50;horizontalStack=0;rounded=1;fontSize=14;fontStyle=0;strokeWidth=2;resizeParent=0;resizeLast=1;shadow=0;dashed=0;align=center;arcSize=4;whiteSpace=wrap;html=1;" vertex="1" parent="1">
          <mxGeometry x="438" y="260" width="160" height="120" as="geometry" />
        </mxCell>
        <mxCell id="VJBKhlAJXeaNPZMT-unQ-4" value="#ei_id&lt;br&gt;*datumGelegd" style="align=left;strokeColor=none;fillColor=none;spacingLeft=4;fontSize=12;verticalAlign=top;resizable=0;rotatable=0;part=1;html=1;" vertex="1" parent="VJBKhlAJXeaNPZMT-unQ-3">
          <mxGeometry y="50" width="160" height="70" as="geometry" />
        </mxCell>
      </root>
    </mxGraphModel>
  </diagram>
</mxfile>
